<?xml version="1.0" encoding="UTF-8"?>
<svg width="237px" height="390px" viewBox="0 0 237 390" version="1.1" xmlns="http://www.w3.org/2000/svg" xmlns:xlink="http://www.w3.org/1999/xlink">
    <!-- Generator: Sketch 61.2 (89653) - https://sketch.com -->
    <title>Artboard</title>
    <desc>Created with Sketch.</desc>
    <g id="Artboard" stroke="none" stroke-width="1" fill="none" fill-rule="evenodd">
        <path d="M145.492662,106.982097 L215.151515,10 L139.55276,10 L129.292929,106.982097 L145.492662,106.982097 Z M168.628546,278.787385 C162.925322,273.223382 154.914005,267.733964 144.594595,262.31913 C133.243243,256.362813 117.477477,253.384655 97.2972973,253.384655 C68.4684685,253.384655 45.045045,260.333691 27.027027,274.231765 C9.00900901,288.129838 0,306.450026 0,329.192327 C0,352.295618 9.0990991,370.706053 27.2972973,384.423632 C45.4954955,398.141211 68.8288288,405 97.2972973,405 C117.477477,405 133.243243,402.021841 144.594595,396.065524 C155.945946,390.109207 164.504505,384.062643 170.27027,377.925831 L170.27027,377.925831 L171.916291,380.388829 C177.484359,388.385736 183.865741,394.251806 191.060435,397.987038 L193.243243,399.043683 C202.072072,403.014561 212.612613,405 224.864865,405 C240,405 252.252252,402.924314 261.621622,398.772941 C270.990991,394.621569 278.648649,389.387229 284.594595,383.069923 C290.540541,376.752617 295.675676,370.525558 300,364.388747 L300,364.388747 L285.405405,351.934629 C282.522523,355.544518 279.369369,358.522677 275.945946,360.869105 C272.522523,363.215533 268.828829,364.388747 264.864865,364.388747 C259.099099,364.388747 254.954955,362.132566 252.432432,357.620205 C249.90991,353.107843 248.648649,348.32474 248.648649,343.270895 L248.648649,343.270895 L248.648649,226.310486 C248.648649,202.124228 243.513514,183.443052 233.243243,170.266957 C222.972973,157.090861 209.63964,147.795396 193.243243,142.380563 C176.846847,136.965729 159.459459,134.258312 141.081081,134.258312 C127.747748,134.258312 113.783784,135.521773 99.1891892,138.048696 C84.5945946,140.575618 70.990991,144.456249 58.3783784,149.690588 C45.7657658,154.924928 35.5855856,161.603223 27.8378378,169.725473 C20.0900901,177.847724 16.2162162,187.684672 16.2162162,199.236317 C16.2162162,211.50994 19.8198198,221.346888 27.027027,228.747161 C34.2342342,236.147434 43.2432432,239.84757 54.0540541,239.84757 C64.8648649,239.84757 73.8738739,236.237681 81.0810811,229.017903 C88.2882883,221.798124 91.8918919,212.773402 91.8918919,201.943734 C91.8918919,194.723956 90.1801802,188.226155 86.7567568,182.450332 C83.3333333,176.67451 78.7387387,171.981654 72.972973,168.371765 C79.8198198,165.122864 86.6666667,162.686189 93.5135135,161.061739 C100.36036,159.437289 107.747748,158.625064 115.675676,158.625064 C137.297297,158.625064 151.801802,165.574101 159.189189,179.472174 C166.576577,193.370247 170.27027,211.690435 170.27027,234.432737 L170.27027,234.432737 L170.27027,280.458824 L168.628546,278.787385 Z M169.69697,351.556627 C162.127154,360.615757 153.836403,367.410104 144.824718,371.939668 C135.813032,376.469233 126.801347,378.734015 117.789661,378.734015 C104.452367,378.734015 94.4493959,374.023268 87.7807487,364.601774 C81.1121014,355.180279 77.7777778,343.222228 77.7777778,328.727621 C77.7777778,313.870649 81.1121014,301.822007 87.7807487,292.581695 C94.4493959,283.341384 104.452367,278.721228 117.789661,278.721228 C126.801347,278.721228 135.813032,280.98601 144.824718,285.515575 C153.836403,290.045139 162.127154,296.839486 169.69697,305.898616 L169.69697,305.898616 L169.69697,351.556627 Z" id="รก" fill="#FFFFFF" fill-rule="nonzero"></path>
    </g>
</svg>