<?xml version="1.0" encoding="UTF-8"?>
<svg width="237px" height="395px" viewBox="0 0 237 395" version="1.1" xmlns="http://www.w3.org/2000/svg" xmlns:xlink="http://www.w3.org/1999/xlink">
    <!-- Generator: Sketch 61.2 (89653) - https://sketch.com -->
    <title>รก</title>
    <desc>Created with Sketch.</desc>
    <g id="Page-1" stroke="none" stroke-width="1" fill="none" fill-rule="evenodd">
        <g id="Extra-large:-Desktops---12-col" transform="translate(-1203.000000, -383.000000)" fill="#FFFFFF" fill-rule="nonzero">
            <path d="M1348.49266,479.982097 L1418.15152,383 L1342.55276,383 L1332.29293,479.982097 L1348.49266,479.982097 Z M1371.62855,651.787385 C1365.92532,646.223382 1357.914,640.733964 1347.59459,635.31913 C1336.24324,629.362813 1320.47748,626.384655 1300.2973,626.384655 C1271.46847,626.384655 1248.04505,633.333691 1230.02703,647.231765 C1212.00901,661.129838 1203,679.450026 1203,702.192327 C1203,725.295618 1212.0991,743.706053 1230.2973,757.423632 C1248.4955,771.141211 1271.82883,778 1300.2973,778 C1320.47748,778 1336.24324,775.021841 1347.59459,769.065524 C1358.94595,763.109207 1367.5045,757.062643 1373.27027,750.925831 L1373.27027,750.925831 L1374.91629,753.388829 C1380.48436,761.385736 1386.86574,767.251806 1394.06044,770.987038 L1396.24324,772.043683 C1405.07207,776.014561 1415.61261,778 1427.86486,778 C1443,778 1455.25225,775.924314 1464.62162,771.772941 C1473.99099,767.621569 1481.64865,762.387229 1487.59459,756.069923 C1493.54054,749.752617 1498.67568,743.525558 1503,737.388747 L1503,737.388747 L1488.40541,724.934629 C1485.52252,728.544518 1482.36937,731.522677 1478.94595,733.869105 C1475.52252,736.215533 1471.82883,737.388747 1467.86486,737.388747 C1462.0991,737.388747 1457.95495,735.132566 1455.43243,730.620205 C1452.90991,726.107843 1451.64865,721.32474 1451.64865,716.270895 L1451.64865,716.270895 L1451.64865,599.310486 C1451.64865,575.124228 1446.51351,556.443052 1436.24324,543.266957 C1425.97297,530.090861 1412.63964,520.795396 1396.24324,515.380563 C1379.84685,509.965729 1362.45946,507.258312 1344.08108,507.258312 C1330.74775,507.258312 1316.78378,508.521773 1302.18919,511.048696 C1287.59459,513.575618 1273.99099,517.456249 1261.37838,522.690588 C1248.76577,527.924928 1238.58559,534.603223 1230.83784,542.725473 C1223.09009,550.847724 1219.21622,560.684672 1219.21622,572.236317 C1219.21622,584.50994 1222.81982,594.346888 1230.02703,601.747161 C1237.23423,609.147434 1246.24324,612.84757 1257.05405,612.84757 C1267.86486,612.84757 1276.87387,609.237681 1284.08108,602.017903 C1291.28829,594.798124 1294.89189,585.773402 1294.89189,574.943734 C1294.89189,567.723956 1293.18018,561.226155 1289.75676,555.450332 C1286.33333,549.67451 1281.73874,544.981654 1275.97297,541.371765 C1282.81982,538.122864 1289.66667,535.686189 1296.51351,534.061739 C1303.36036,532.437289 1310.74775,531.625064 1318.67568,531.625064 C1340.2973,531.625064 1354.8018,538.574101 1362.18919,552.472174 C1369.57658,566.370247 1373.27027,584.690435 1373.27027,607.432737 L1373.27027,607.432737 L1373.27027,653.458824 L1371.62855,651.787385 Z M1372.69697,724.556627 C1365.12715,733.615757 1356.8364,740.410104 1347.82472,744.939668 C1338.81303,749.469233 1329.80135,751.734015 1320.78966,751.734015 C1307.45237,751.734015 1297.4494,747.023268 1290.78075,737.601774 C1284.1121,728.180279 1280.77778,716.222228 1280.77778,701.727621 C1280.77778,686.870649 1284.1121,674.822007 1290.78075,665.581695 C1297.4494,656.341384 1307.45237,651.721228 1320.78966,651.721228 C1329.80135,651.721228 1338.81303,653.98601 1347.82472,658.515575 C1356.8364,663.045139 1365.12715,669.839486 1372.69697,678.898616 L1372.69697,678.898616 L1372.69697,724.556627 Z" id="รก"></path>
        </g>
    </g>
</svg>